<?xml version="1.0" encoding="UTF-8" standalone="no"?>
<svg
   xmlns:dc="http://purl.org/dc/elements/1.1/"
   xmlns:cc="http://creativecommons.org/ns#"
   xmlns:rdf="http://www.w3.org/1999/02/22-rdf-syntax-ns#"
   xmlns:svg="http://www.w3.org/2000/svg"
   xmlns="http://www.w3.org/2000/svg"
   xmlns:sodipodi="http://sodipodi.sourceforge.net/DTD/sodipodi-0.dtd"
   xmlns:inkscape="http://www.inkscape.org/namespaces/inkscape"
   version="1.1"
   x="0px"
   y="0px"
   viewBox="0 0 1558.2848 329.07"
   xml:space="preserve"
   id="svg133"
   sodipodi:docname="LogoProvantSimulator.svg"
   width="1558.2849"
   height="329.07001"
   inkscape:version="1.0 (4035a4fb49, 2020-05-01)"
   inkscape:export-filename="C:\Users\eduar\Dropbox\JunioEduardo\ProVANT\Logo\ProVANTSimulator.png"
   inkscape:export-xdpi="96"
   inkscape:export-ydpi="96"><metadata
   id="metadata139"><rdf:RDF><cc:Work
       rdf:about=""><dc:format>image/svg+xml</dc:format><dc:type
         rdf:resource="http://purl.org/dc/dcmitype/StillImage" /><dc:title></dc:title></cc:Work></rdf:RDF></metadata><defs
   id="defs137">
	
	
	
	
	
	
	
	
	

	
	
	
	
	
	
		
		
		
		
		
		
		
		
		
	
		
		
		
		
		
		
	
		
		
		
		
		
		
	
			
		
			
				
			
			
		
			
				
			
			
		
			
			
		
			
		
			
				
			
			
		
			
				
			
			
		
			
			
		</defs><sodipodi:namedview
   pagecolor="#ffffff"
   bordercolor="#666666"
   borderopacity="1"
   objecttolerance="10"
   gridtolerance="10"
   guidetolerance="10"
   inkscape:pageopacity="0"
   inkscape:pageshadow="2"
   inkscape:window-width="1920"
   inkscape:window-height="1001"
   id="namedview135"
   showgrid="false"
   inkscape:zoom="0.5606433"
   inkscape:cx="766.53754"
   inkscape:cy="131.80947"
   inkscape:window-x="-9"
   inkscape:window-y="-9"
   inkscape:window-maximized="1"
   inkscape:current-layer="svg133"
   inkscape:document-rotation="0" />
<style
   type="text/css"
   id="style2">
	.st0{fill:none;stroke:#000000;stroke-width:17;stroke-linecap:round;stroke-miterlimit:10;}
	.st1{fill:none;stroke:#000000;stroke-width:16;stroke-linecap:round;stroke-miterlimit:10;}
	.st2{fill:#7CBFE1;}
	.st3{fill:#877676;stroke:#000000;stroke-width:2;stroke-miterlimit:10;}
	.st4{fill:#393432;}
	.st5{fill:#F2F7F8;}
	.st6{fill:#7BC3E9;}
</style>


<g
   id="g296"
   inkscape:export-xdpi="96"
   inkscape:export-ydpi="96"><g
     transform="translate(498.83106,-275.8)"
     id="Letras">
	<g
   id="g10">
		<path
   inkscape:connector-curvature="0"
   id="path4"
   d="m 425.08,446.38 h -32.2 c -9.31,0 -15.79,2.06 -19.41,6.18 -3.43,4.12 -5.15,10.15 -5.15,18.09 0,9.12 2.84,15.69 8.53,19.71 2.35,1.67 4.85,2.84 7.5,3.53 2.74,0.59 6.57,0.88 11.47,0.88 h 104.85 c 0.2,0 0.39,0 0.59,0 0.2,0 0.44,0 0.74,0 6.08,0 9.12,2.99 9.12,8.97 0,5.79 -2.89,8.83 -8.68,9.12 H 502 393.17 c -8.53,0 -15.29,-0.88 -20.29,-2.65 -5,-1.67 -9.41,-4.71 -13.23,-9.12 -7.26,-8.14 -10.88,-18.39 -10.88,-30.74 0,-15.1 4.36,-26.38 13.09,-33.83 3.43,-3.04 7.6,-5.15 12.5,-6.33 4.61,-1.27 10.88,-1.91 18.82,-1.91 h 27.2 4.71 35.15 74.85 c 7.55,0 13.43,0.54 17.65,1.62 4.12,1.18 7.5,3.24 10.15,6.18 5.1,5.39 7.65,13.04 7.65,22.95 v 53.84 h -19.12 v -50.31 c 0,-4.21 -0.2,-7.01 -0.59,-8.38 -0.39,-1.67 -1.18,-3.14 -2.35,-4.41 -2.26,-2.25 -5.88,-3.38 -10.88,-3.38 -1.08,0 -8.6,0 -22.57,0 -13.97,0 -27.57,0 -40.81,0 -13.24,0 -22.75,0 -28.53,0 -5.79,0 -0.93,0 14.56,0 h -35.17 z" />
		<path
   inkscape:connector-curvature="0"
   id="path6"
   d="m 745.65,446.38 h -145 v 56.78 c 0.1,6.47 -3.09,9.71 -9.56,9.71 -6.37,0 -9.56,-3.19 -9.56,-9.56 v -0.15 -44.13 -30.74 h 35.59 9.71 65 1.03 65 9.71 c 7.55,0 13.43,0.54 17.65,1.62 4.12,1.18 7.5,3.24 10.15,6.18 5.19,5.59 7.79,13.24 7.79,22.95 v 44.13 0.15 c 0,6.38 -3.23,9.56 -9.71,9.56 -6.37,0 -9.56,-3.19 -9.56,-9.56 v -0.15 -12.94 -17.8 -9.86 c 0,-4.12 -0.15,-6.91 -0.44,-8.38 -0.49,-1.67 -1.32,-3.14 -2.5,-4.41 -2.26,-2.25 -5.88,-3.38 -10.88,-3.38 -0.39,0 -1.69,0 -3.9,0 -2.21,0 -5.02,0 -8.46,0 h -12.06 z" />
		<path
   inkscape:connector-curvature="0"
   id="path8"
   d="m 959.75,494.78 h 66.91 c 6.08,0 9.12,3.04 9.12,9.12 0,5.98 -3.04,8.97 -9.12,8.97 h -62.35 -4.56 -35.29 -74.7 c -7.94,0 -13.87,-0.59 -17.79,-1.76 -4.12,-0.98 -7.5,-2.99 -10.15,-6.03 -5.1,-5.49 -7.65,-13.14 -7.65,-22.95 v -53.84 h 19.12 v 22.65 c 17.06,0 39.07,-0.02 66.03,-0.07 26.96,-0.05 48.97,-0.07 66.03,-0.07 6.08,0 9.12,3.04 9.12,9.12 0,5.88 -2.89,8.88 -8.68,8.97 v 0.15 h -0.44 L 833.3,468.75 v 9.71 c 0,4.32 0.2,7.16 0.59,8.53 0.2,1.57 0.98,2.99 2.35,4.27 2.35,2.35 6.03,3.53 11.03,3.53 0.98,0 8.46,0 22.43,0 13.97,0 27.57,0 40.81,0 13.24,0 22.72,0 28.45,0 5.74,0 0.91,0 -14.48,0 h 35.27 z" />
	</g>
	<g
   id="g18">
		<path
   inkscape:connector-curvature="0"
   id="path12"
   d="m -366.21,446.38 c 15.39,0 20.22,0 14.48,0 -5.74,0 -15.22,0 -28.45,0 -13.23,0 -26.84,0 -40.81,0 -13.97,0 -21.45,0 -22.43,0 -5.1,0 -8.77,1.13 -11.03,3.38 -1.37,1.47 -2.16,2.94 -2.35,4.41 -0.39,1.37 -0.59,4.17 -0.59,8.38 v 50.31 h -19.12 v -53.84 c 0,-9.9 2.55,-17.55 7.65,-22.95 2.65,-2.94 6.03,-5 10.15,-6.18 4.12,-1.08 10.05,-1.62 17.79,-1.62 h 74.7 35.29 4.56 38.38 c 11.27,0 19.63,3.21 25.07,9.63 5.44,6.42 8.11,13.46 8.01,21.11 -0.1,7.65 -2.82,14.71 -8.16,21.18 -5.34,6.47 -13.06,9.76 -23.16,9.85 l -121.61,0.29 h -0.44 c -5.79,-0.29 -8.68,-3.33 -8.68,-9.12 0,-6.08 3.04,-9.12 9.12,-9.12 0.59,0 1.03,0.05 1.32,0.15 h 117.64 c 10.78,0.1 16.05,-4.19 15.81,-12.87 -0.25,-8.68 -6.05,-13.02 -17.43,-13.02 h -40.44 -35.27 z" />
		<path
   inkscape:connector-curvature="0"
   id="path14"
   d="m -133.43,446.38 c 15.39,0 20.22,0 14.48,0 -5.74,0 -15.22,0 -28.45,0 -13.23,0 -26.84,0 -40.81,0 -13.97,0 -21.45,0 -22.43,0 -5.1,0 -8.77,1.13 -11.03,3.38 -1.37,1.47 -2.16,2.94 -2.35,4.41 -0.39,1.37 -0.59,4.17 -0.59,8.38 v 50.31 h -19.12 v -53.84 c 0,-9.9 2.55,-17.55 7.65,-22.95 2.65,-2.94 6.03,-5 10.15,-6.18 4.12,-1.08 10.05,-1.62 17.79,-1.62 h 74.7 c 11.47,0 28.48,0 51.03,0 22.55,0 39.6,0 51.17,0 6.08,0 9.12,2.99 9.12,8.97 0,5.98 -2.99,9.02 -8.97,9.12 h -102.34 z" />
		<path
   inkscape:connector-curvature="0"
   id="path16"
   d="M 139.94,512.87 H 59.35 33.33 c -8.53,0 -15.29,-0.88 -20.29,-2.65 -5,-1.67 -9.41,-4.71 -13.23,-9.12 -7.26,-8.14 -10.88,-18.39 -10.88,-30.74 0,-15.1 4.36,-26.38 13.09,-33.83 3.43,-3.04 7.6,-5.15 12.5,-6.33 4.61,-1.27 10.88,-1.91 18.82,-1.91 h 26.03 39.56 1.47 39.56 26.03 c 7.94,0 14.26,0.64 18.97,1.91 4.61,1.18 8.77,3.29 12.5,6.33 8.72,7.55 13.09,18.83 13.09,33.83 0,12.36 -3.63,22.6 -10.88,30.74 -4.12,4.51 -8.58,7.55 -13.38,9.12 -5,1.76 -11.76,2.65 -20.29,2.65 z M 33.03,446.38 c -9.31,0 -15.78,2.06 -19.41,6.18 -3.43,4.12 -5.15,10.15 -5.15,18.09 0,9.12 2.84,15.69 8.53,19.71 2.35,1.67 4.85,2.84 7.5,3.53 2.74,0.59 6.57,0.88 11.47,0.88 h 23.38 80.58 23.53 c 4.9,0 8.68,-0.29 11.32,-0.88 2.65,-0.69 5.2,-1.86 7.65,-3.53 5.59,-4.12 8.38,-10.69 8.38,-19.71 0,-8.14 -1.72,-14.17 -5.15,-18.09 -3.73,-4.12 -10.2,-6.18 -19.41,-6.18 H 139.93 59.35 Z" />
	</g>
</g><g
     transform="translate(498.83106,-275.8)"
     id="Layer_3">
	<path
   style="fill:none;stroke:#000000;stroke-width:17;stroke-linecap:round;stroke-miterlimit:10"
   inkscape:connector-curvature="0"
   id="path21"
   d="m -490.21,394.43 c 0,0 556.17,0 710.47,0"
   class="st0" />
	<line
   style="fill:none;stroke:#000000;stroke-width:17;stroke-linecap:round;stroke-miterlimit:10"
   id="line23"
   y2="394.42999"
   x2="220.25999"
   y1="503.53"
   x1="278.63"
   class="st0" />
	<line
   style="fill:none;stroke:#000000;stroke-width:17;stroke-linecap:round;stroke-miterlimit:10"
   id="line25"
   y2="503.53"
   x2="278.63"
   y1="396.26001"
   x1="335.17001"
   class="st0" />
	<line
   style="fill:none;stroke:#000000;stroke-width:16;stroke-linecap:round;stroke-miterlimit:10"
   id="line27"
   y2="394.42999"
   x2="1051.34"
   y1="394.42999"
   x1="335.81"
   class="st1" />
	<g
   id="g33">
		<polygon
   id="polygon29"
   points="295.63,374.16 278.11,407.09 260.69,374.16 278.16,341.28 " />
		<path
   style="fill:#7cbfe1"
   inkscape:connector-curvature="0"
   id="path31"
   d="m 278.16,342.35 16.9,31.81 -16.95,31.87 -16.85,-31.86 16.9,-31.82 m 0,-2.13 -18.03,33.94 17.98,34 18.09,-34 z"
   class="st2" />
	</g>
</g><path
     style="fill:#877676;stroke:#000000;stroke-width:2;stroke-miterlimit:10"
     inkscape:connector-curvature="0"
     id="path36"
     d="m 393.06106,110.18 c 7.38,4.73 -30.7,14.44 -85.05,21.69 -54.35,7.25 -100.95,10.5 -108.32,5.77 -7.38,-4.73 27.26,-15.66 81.61,-22.9 54.34,-7.25 104.39,-9.29 111.76,-4.56 z"
     class="st3" /><path
     class="st4"
     d="m 440.26106,190.7 c 13.65,-3.31 39.87,-10.32 67.26,-21.21 53.76,-21.36 86.27,-46.73 96.62,-75.38 l 0.07,-0.18 0.05,-0.19 c 3.33,-13.01 1.3,-24.79 -6.03,-35.01 -21.29,-29.68 -82.31,-38.53 -116.78,-41.17 l -0.33,-0.03 c -5.49,-0.42 -11.59,-0.64 -18.12,-0.64 -58.95,0 -144.44,17.17 -173.29,28.74 l -0.13,0.05 -0.12,0.06 c -5.55,2.68 -11.3,5.39 -16.86,8.02 -16.31,7.7 -32.08,15.15 -44.42,22.24 36.71,-25.5 109.4,-68.32 236.61,-70.31 87.08,0 139.77,16.85 161,51.5 6.17,13.55 5.58,26.65 -1.79,40.05 -15.95,29 -59.99,51.79 -94.13,65.81 -35.22,14.46 -69.8,23.73 -89.61,27.65 z"
     id="path38"
     inkscape:connector-curvature="0"
     style="fill:#393432" /><path
     d="m 464.79106,9.69 c 85.41,0.01 136.93,16.16 157.46,49.38 5.5,12.24 4.93,24.1 -1.75,36.24 -7.27,13.21 -21.54,26.42 -42.09,39.13 13.55,-11.3 24.19,-24.26 29.51,-38.96 l 0.13,-0.36 0.1,-0.38 c 3.63,-14.21 1.39,-27.1 -6.66,-38.33 -11.01,-15.36 -32.87,-27.03 -64.96,-34.69 -24.36,-5.82 -47.25,-7.57 -54.77,-8.14 l -0.33,-0.03 c -5.59,-0.43 -11.79,-0.65 -18.42,-0.65 -37.55,0 -87.61,6.96 -126.68,15.48 34.66,-10.35 77.06,-17.88 128.46,-18.69 m -0.07,-8 c -157.45,2.47 -232.13,66.94 -258.63,85.14 -0.04,0.08 0,0.37 0,0.37 0,0 2.12,2.68 5.19,5.81 12,-12.77 47.8,-28.18 79.91,-43.66 29.83,-11.96 114.39,-28.45 171.81,-28.45 6.3,0 12.27,0.2 17.81,0.62 16.92,1.3 135.23,9.96 119.57,71.23 -24,66.38 -170.68,96.26 -170.68,96.26 0,0 0.89,4.98 1.23,7.34 45.19,-6.06 234.98,-61.55 198.38,-141.04 -20.59,-33.88 -69.78,-53.62 -164.59,-53.62 z"
     id="path40"
     inkscape:connector-curvature="0" /><path
     style="fill:#f2f7f8"
     inkscape:connector-curvature="0"
     id="path44"
     d="m 381.15106,114.66 c -10.81,3.16 -30.89,7.33 -49.21,10.3 -30.64,4.97 -62.31,9.02 -95.94,11.11 -8.79,0.55 -17.71,0.94 -26.51,0.6 -7.97,-0.31 -8.86,-1.06 -3.73,-3.09 10.5,-4.14 24.49,-6.98 38.8,-9.6 32.35,-5.9 66.43,-10.41 102.44,-13.25 11.16,-0.88 22.42,-1.45 33.76,-1.29 3.15,0.05 7.42,-0.15 8.7,0.98 1.25,1.09 -6.16,3.6 -8.31,4.24 z"
     class="st5" /><ellipse
     transform="rotate(-37.863426)"
     class="st3"
     cx="305.96539"
     cy="324.84015"
     rx="65.501991"
     ry="14.890452"
     id="ellipse46"
     style="fill:#877676;stroke:#000000;stroke-width:2.0000608;stroke-miterlimit:10" /><path
     class="st5"
     d="m 485.24106,38.51 c -3.83,6.45 -12.5,16.35 -21.17,24.36 -14.5,13.39 -30.48,25.91 -49.44,36.5 -4.96,2.77 -10.14,5.38 -15.91,7.05 -5.23,1.52 -6.47,0.81 -5.13,-2.9 2.75,-7.58 8.85,-14.39 15.36,-21.01 14.71,-14.95 31.77,-28.6 51.53,-40.67 6.13,-3.74 12.6,-7.13 19.79,-9.63 2,-0.7 4.47,-1.95 6.29,-0.88 1.75,1.05 -0.56,5.89 -1.32,7.18 z"
     id="path48"
     inkscape:connector-curvature="0"
     style="fill:#f2f7f8" /><path
     class="st6"
     d="m 480.36106,36.58 c -18.33,26.15 -45.02,47.71 -79.81,64.75 18.2,-26.2 44.69,-47.82 79.81,-64.75 z"
     id="path50"
     inkscape:connector-curvature="0"
     style="fill:#7bc3e9" /><ellipse
     transform="rotate(-62.85071)"
     class="st3"
     cx="78.208054"
     cy="456.57733"
     rx="16.229624"
     ry="59.088634"
     id="ellipse54"
     style="fill:#877676;stroke:#000000;stroke-width:1.99995375;stroke-miterlimit:10" /><path
     class="st5"
     d="m 481.22106,164.51 c -7.81,-0.85 -20.08,-4.46 -30.19,-8.74 -16.9,-7.16 -32.95,-15.86 -47.11,-27.7 -3.7,-3.1 -7.24,-6.43 -9.78,-10.6 -2.29,-3.77 -1.61,-5.04 2.78,-5.26 8.99,-0.45 17.45,2.15 25.73,5.14 18.71,6.78 36.17,15.96 52.11,27.94 4.94,3.71 9.51,7.84 13.14,12.87 1.01,1.4 2.71,2.99 1.67,4.87 -0.99,1.82 -6.79,1.64 -8.35,1.48 z"
     id="path56"
     inkscape:connector-curvature="0"
     style="fill:#f2f7f8" /><path
     class="st6"
     d="m 482.92106,159.8 c -31.95,-5.76 -59.51,-20.05 -82.73,-42.64 31.98,5.64 59.59,19.74 82.73,42.64 z"
     id="path58"
     inkscape:connector-curvature="0"
     style="fill:#7bc3e9" /><path
     class="st6"
     d="m 234.77106,131.39 c 10.19,-2.17 20.43,-3.94 30.69,-5.58 5.13,-0.86 10.27,-1.57 15.4,-2.35 l 15.43,-2.13 15.46,-1.92 c 5.16,-0.56 10.32,-1.2 15.49,-1.69 10.34,-1.06 20.69,-1.97 31.1,-2.5 -10.19,2.17 -20.43,3.95 -30.69,5.59 -5.12,0.86 -10.27,1.57 -15.4,2.35 l -15.43,2.13 -15.46,1.91 c -5.16,0.57 -10.32,1.2 -15.49,1.69 -10.34,1.06 -20.7,1.97 -31.1,2.5 z"
     id="path62"
     inkscape:connector-curvature="0"
     style="fill:#7bc3e9" /><path
     style="fill:#877676;stroke:#000000;stroke-width:2;stroke-miterlimit:10"
     inkscape:connector-curvature="0"
     id="path68"
     d="m 1161.0211,108.5 c 7.38,4.73 -30.7,14.44 -85.05,21.69 -54.35,7.25 -100.95004,10.5 -108.32004,5.77 -7.38,-4.73 27.26,-15.66 81.61004,-22.9 54.34,-7.25 104.38,-9.3 111.76,-4.56 z"
     class="st3" /><path
     class="st4"
     d="m 1208.2211,189.01 c 13.66,-3.31 39.87,-10.32 67.26,-21.21 53.76,-21.36 86.27,-46.73 96.63,-75.38 l 0.07,-0.18 0.05,-0.19 c 3.33,-13.01 1.3,-24.79 -6.03,-35 -21.28,-29.68 -82.3,-38.54 -116.78,-41.18 l -0.34,-0.03 c -5.49,-0.42 -11.59,-0.64 -18.12,-0.64 -58.95,0 -144.44,17.17 -173.3,28.74 l -0.13,0.05 -0.12,0.06 c -5.55,2.68 -11.3,5.39 -16.86,8.02 -16.31,7.7 -32.08,15.15 -44.42004,22.24 C 1032.8411,48.81 1105.5411,5.99 1232.7411,4 c 87.08,0 139.76,16.85 161,51.5 6.17,13.55 5.58,26.65 -1.79,40.05 -15.95,29 -60,51.79 -94.13,65.81 -35.22,14.46 -69.8,23.73 -89.6,27.65 z"
     id="path70"
     inkscape:connector-curvature="0"
     style="fill:#393432" /><path
     d="m 1232.7411,8 c 85.41,0.01 136.93,16.16 157.46,49.38 5.5,12.24 4.93,24.1 -1.75,36.24 -7.27,13.21 -21.54,26.42 -42.09,39.13 13.55,-11.3 24.19,-24.26 29.51,-38.96 l 0.13,-0.36 0.1,-0.38 c 3.63,-14.21 1.39,-27.1 -6.66,-38.33 -11.02,-15.36 -32.87,-27.03 -64.96,-34.69 -24.36,-5.82 -47.25,-7.57 -54.77,-8.14 l -0.33,-0.03 c -5.59,-0.43 -11.79,-0.65 -18.42,-0.65 -37.55,0 -87.61,6.96 -126.68,15.48 34.67,-10.35 77.07,-17.88 128.46,-18.69 m -0.06,-8 c -157.45,2.47 -232.13,66.94 -258.63004,85.14 -0.04,0.08 0,0.37 0,0.37 0,0 2.12,2.68 5.19,5.81 12,-12.77 47.80004,-28.18 79.91004,-43.66 29.83,-11.96 114.39,-28.45 171.81,-28.45 6.3,0 12.27,0.2 17.81,0.62 16.92,1.3 135.23,9.96 119.57,71.23 -24,66.38 -170.68,96.26 -170.68,96.26 0,0 0.89,4.98 1.23,7.34 45.19,-6.06 234.98,-61.55 198.38,-141.04 C 1376.6811,19.75 1327.4911,0 1232.6811,0 Z"
     id="path72"
     inkscape:connector-curvature="0" /><path
     style="fill:#f2f7f8"
     inkscape:connector-curvature="0"
     id="path76"
     d="m 1149.1111,112.97 c -10.81,3.16 -30.89,7.33 -49.21,10.3 -30.64,4.97 -62.31,9.02 -95.94,11.11 -8.79004,0.55 -17.71004,0.94 -26.51004,0.6 -7.97,-0.31 -8.86,-1.06 -3.73,-3.09 10.5,-4.14 24.49,-6.98 38.80004,-9.6 32.35,-5.9 66.43,-10.41 102.44,-13.25 11.16,-0.88 22.42,-1.45 33.76,-1.29 3.15,0.05 7.42,-0.15 8.7,0.98 1.25,1.09 -6.16,3.6 -8.31,4.24 z"
     class="st5" /><ellipse
     transform="rotate(-37.863426)"
     class="st3"
     cx="913.31134"
     cy="794.89978"
     rx="65.501991"
     ry="14.890452"
     id="ellipse78"
     style="fill:#877676;stroke:#000000;stroke-width:2.0000608;stroke-miterlimit:10" /><path
     class="st5"
     d="m 1253.2011,36.82 c -3.83,6.45 -12.5,16.35 -21.17,24.36 -14.5,13.39 -30.48,25.91 -49.44,36.5 -4.96,2.77 -10.14,5.38 -15.91,7.05 -5.23,1.52 -6.47,0.81 -5.13,-2.9 2.75,-7.58 8.85,-14.39 15.36,-21.01 14.71,-14.95 31.77,-28.6 51.53,-40.67 6.13,-3.74 12.6,-7.13 19.79,-9.63 2,-0.7 4.47,-1.95 6.29,-0.88 1.75,1.05 -0.57,5.89 -1.32,7.18 z"
     id="path80"
     inkscape:connector-curvature="0"
     style="fill:#f2f7f8" /><path
     class="st6"
     d="m 1248.3211,34.89 c -18.33,26.15 -45.02,47.71 -79.81,64.75 18.2,-26.19 44.69,-47.82 79.81,-64.75 z"
     id="path82"
     inkscape:connector-curvature="0"
     style="fill:#7bc3e9" /><ellipse
     transform="rotate(-62.85071)"
     class="st3"
     cx="430.11182"
     cy="1139.1198"
     rx="16.229624"
     ry="59.088634"
     id="ellipse86"
     style="fill:#877676;stroke:#000000;stroke-width:1.99995375;stroke-miterlimit:10" /><path
     class="st5"
     d="m 1249.1811,162.82 c -7.81,-0.85 -20.08,-4.46 -30.19,-8.74 -16.9,-7.16 -32.95,-15.86 -47.11,-27.7 -3.7,-3.1 -7.24,-6.43 -9.78,-10.6 -2.29,-3.77 -1.61,-5.04 2.78,-5.26 8.99,-0.45 17.45,2.15 25.73,5.14 18.71,6.78 36.17,15.96 52.11,27.94 4.94,3.71 9.51,7.84 13.14,12.87 1.01,1.4 2.71,2.99 1.67,4.87 -1,1.82 -6.79,1.64 -8.35,1.48 z"
     id="path88"
     inkscape:connector-curvature="0"
     style="fill:#f2f7f8" /><path
     class="st6"
     d="m 1250.8711,158.11 c -31.95,-5.76 -59.51,-20.05 -82.73,-42.64 31.99,5.64 59.6,19.74 82.73,42.64 z"
     id="path90"
     inkscape:connector-curvature="0"
     style="fill:#7bc3e9" /><path
     class="st6"
     d="m 1002.7211,129.7 c 10.19,-2.17 20.43,-3.94 30.69,-5.58 5.13,-0.86 10.27,-1.57 15.4,-2.35 l 15.43,-2.13 15.46,-1.92 c 5.16,-0.56 10.32,-1.2 15.49,-1.69 10.34,-1.06 20.69,-1.97 31.1,-2.5 -10.19,2.17 -20.43,3.95 -30.69,5.59 -5.12,0.86 -10.27,1.57 -15.4,2.35 l -15.43,2.13 -15.46,1.91 c -5.16,0.57 -10.32,1.2 -15.49,1.69 -10.34,1.06 -20.69,1.98 -31.1,2.5 z"
     id="path94"
     inkscape:connector-curvature="0"
     style="fill:#7bc3e9" /></g><g
   id="g255"
   transform="matrix(1.0626296,0,0,1.4099797,-73.77834,-138.47933)"
   inkscape:export-xdpi="96"
   inkscape:export-ydpi="96"><path
     inkscape:connector-curvature="0"
     id="path100"
     d="m 438.04106,291.83 c 2.5,0.17 3.75,1.49 3.75,3.95 0,2.68 -1.42,4.01 -4.27,4.01 -0.52,0 -1.09,0 -1.72,0 -0.63,0 -1.33,0 -2.1,0 h 3.75 0.06 c -2.37,0 -5.43,0 -9.16,0 -3.73,0 -7.4,0 -11,0 -3.6,0 -6.76,0 -9.48,0 -2.72,0 -4.23,0 -4.53,0 -2.2,0 -3.8,0.5 -4.79,1.49 -0.56,0.56 -0.93,1.21 -1.1,1.94 -0.13,0.65 -0.19,1.88 -0.19,3.69 v 8.67 c 0,4.19 -1.12,7.53 -3.37,10.03 -1.29,1.34 -2.78,2.22 -4.47,2.65 -1.81,0.52 -4.42,0.78 -7.83,0.78 h -28.94 -4.27 -0.06 c -2.63,0 -3.95,-1.34 -3.95,-4.01 0,-2.63 1.34,-3.95 4.01,-3.95 0.13,0 0.24,0 0.32,0 0.52,0 1.1,0 1.75,0 0.65,0 1.38,0 2.2,0 h -3.88 -0.06 c 2.24,0 5.22,0 8.93,0 3.71,0 7.37,0 10.97,0 3.6,0 6.76,0 9.48,0 2.72,0 4.25,0 4.6,0 2.2,0 3.82,-0.52 4.86,-1.55 0.47,-0.47 0.82,-1.1 1.04,-1.88 0.17,-0.95 0.26,-2.2 0.26,-3.75 v -4.27 -4.27 c 0,-4.36 1.12,-7.72 3.37,-10.1 1.17,-1.29 2.65,-2.2 4.47,-2.72 1.81,-0.47 4.4,-0.71 7.77,-0.71 h 29.26 4.14 z" /><path
     inkscape:connector-curvature="0"
     id="path102"
     d="m 468.98106,321.1 c 9.28,0 16.7,0 22.27,0 -1.08,0 -1.67,0 -1.78,0 -0.11,0 0.49,0 1.78,0 v -21.23 c -5.57,0 -12.97,0 -22.2,0 -9.24,0 -15.36,0 -18.38,0 h -0.06 -0.13 c -2.55,-0.13 -3.82,-1.47 -3.82,-4.01 0,-2.55 1.27,-3.86 3.82,-3.95 1.77,0 4.78,0 9.03,0 4.25,0 8.76,0 13.53,0 4.77,0 9.29,0 13.56,0 4.27,0 7.31,0 9.13,0 -6.52,0 -8.19,0 -5.02,0 3.17,0 8.11,0 14.82,0 6.71,0 13.66,0 20.84,0 7.18,0 11.56,0 13.11,0 3.02,-0.04 4.53,1.27 4.53,3.95 0,1.6 -0.54,2.67 -1.62,3.2 -1.08,0.54 -2.24,0.81 -3.5,0.81 h -39.23 v 21.23 c 6.77,0 14.66,0 23.66,0 9,0 14.38,0 16.15,0 3.02,-0.04 4.53,1.27 4.53,3.95 0,1.64 -0.54,2.72 -1.62,3.24 -1.08,0.52 -2.24,0.78 -3.5,0.78 h -43.16 c -1.81,0 -4.84,0 -9.1,0 -4.25,0 -8.75,0 -13.5,0 -4.75,0 -9.24,0 -13.46,0 -4.23,0 -7.23,0 -9,0 h -0.06 -0.13 c -2.55,-0.13 -3.82,-1.45 -3.82,-3.95 0,-2.5 1.27,-3.84 3.82,-4.01 3.06,-0.01 9.23,-0.01 18.51,-0.01 z" /><path
     inkscape:connector-curvature="0"
     id="path104"
     d="m 621.11106,299.8 c -2.98,0 -6.17,0 -9.58,0 -3.41,0 -6.6,0 -9.58,0 1.55,0 2.41,0 2.56,0 0.15,0 -0.7,0 -2.56,0 v 24.92 c 0,0.04 0,0.09 0,0.13 0,2.81 -1.4,4.21 -4.21,4.21 -2.81,0 -4.21,-1.4 -4.21,-4.21 V 299.8 c -2.07,0 -3.01,0 -2.82,0 0.19,0 1.13,0 2.82,0 -3.24,0 -6.71,0 -10.42,0 -3.71,0 -7.08,0 -10.1,0 h -4.21 c -1.55,0 -2.81,0 -3.75,0 -0.95,0 -1.49,0 -1.62,0 -2.24,0 -3.86,0.5 -4.85,1.49 -0.6,0.65 -0.95,1.29 -1.04,1.94 -0.17,0.6 -0.26,1.83 -0.26,3.69 v 4.34 7.83 5.7 c 0.04,2.85 -1.36,4.27 -4.21,4.27 -2.81,0 -4.21,-1.4 -4.21,-4.21 v -0.06 -19.42 c 0,-4.36 1.12,-7.72 3.37,-10.1 1.17,-1.29 2.65,-2.2 4.47,-2.72 1.81,-0.47 4.42,-0.71 7.83,-0.71 h 4.27 28.61 0.45 28.61 4.27 c 3.32,0 5.91,0.24 7.77,0.71 1.81,0.52 3.3,1.42 4.47,2.72 2.29,2.46 3.43,5.83 3.43,10.1 v 19.42 0.06 c 0,2.81 -1.42,4.21 -4.27,4.21 -2.81,0 -4.21,-1.4 -4.21,-4.21 v -0.06 -5.7 -7.83 -4.34 c 0,-1.81 -0.06,-3.04 -0.19,-3.69 -0.22,-0.73 -0.58,-1.38 -1.1,-1.94 -0.99,-0.99 -2.59,-1.49 -4.79,-1.49 -0.17,0 -0.74,0 -1.72,0 -0.98,0 -2.21,0 -3.72,0 z" /><path
     inkscape:connector-curvature="0"
     id="path106"
     d="m 676.52106,321.1 h 63.83 v -24.99 c 0,-2.85 1.4,-4.27 4.21,-4.27 2.85,0 4.27,1.4 4.27,4.21 v 0.06 19.42 13.53 h -15.67 -4.27 -28.61 -0.45 -28.61 -4.27 c -3.5,0 -6.11,-0.26 -7.83,-0.78 -1.81,-0.43 -3.3,-1.32 -4.47,-2.65 -2.24,-2.42 -3.37,-5.78 -3.37,-10.1 v -19.42 -0.06 c 0,-2.8 1.4,-4.21 4.21,-4.21 2.81,0 4.21,1.4 4.21,4.21 v 0.06 5.7 7.83 4.27 c 0,1.9 0.09,3.15 0.26,3.75 0.09,0.69 0.43,1.32 1.04,1.88 1.04,1.04 2.65,1.55 4.85,1.55 0.13,0 0.67,0 1.62,0 0.95,0 2.2,0 3.75,0 h 5.3 z" /><path
     inkscape:connector-curvature="0"
     id="path108"
     d="m 847.29106,321.1 c 2.63,0.09 3.95,1.42 3.95,4.01 0,2.63 -1.34,3.95 -4.01,3.95 -5.09,0 -12.6,0 -22.53,0 -9.93,0 -17.41,0 -22.46,0 h -32.89 c -3.5,0 -6.11,-0.26 -7.83,-0.78 -1.81,-0.43 -3.3,-1.32 -4.47,-2.65 -2.24,-2.42 -3.37,-5.78 -3.37,-10.1 v -23.69 h 8.42 v 22.08 c 0,1.9 0.09,3.15 0.26,3.75 0.09,0.69 0.43,1.32 1.04,1.88 1.04,1.04 2.65,1.55 4.86,1.55 0.43,0 3.72,0 9.87,0 6.15,0 12.14,0 17.96,0 5.83,0 10,0 12.53,0 2.52,0 0.4,0 -6.38,0 z" /><path
     inkscape:connector-curvature="0"
     id="path110"
     d="m 889.69106,299.8 h -14.18 c -4.1,0 -6.95,0.91 -8.55,2.72 -1.51,1.81 -2.27,4.47 -2.27,7.96 0,4.01 1.25,6.91 3.75,8.67 1.04,0.73 2.14,1.25 3.3,1.55 1.21,0.26 2.89,0.39 5.05,0.39 h 46.16 c 0.09,0 0.17,0 0.26,0 0.09,0 0.19,0 0.32,0 2.68,0 4.01,1.32 4.01,3.95 0,2.55 -1.27,3.88 -3.82,4.01 h -0.19 -47.9 c -3.75,0 -6.73,-0.39 -8.93,-1.17 -2.2,-0.73 -4.14,-2.07 -5.83,-4.01 -3.19,-3.58 -4.79,-8.09 -4.79,-13.53 0,-6.65 1.92,-11.61 5.76,-14.89 1.51,-1.34 3.34,-2.27 5.5,-2.78 2.03,-0.56 4.79,-0.84 8.29,-0.84 h 11.98 2.07 15.47 32.95 c 3.32,0 5.91,0.24 7.77,0.71 1.81,0.52 3.3,1.42 4.47,2.72 2.24,2.37 3.37,5.74 3.37,10.1 v 23.69 h -8.42 v -22.14 c 0,-1.85 -0.09,-3.08 -0.26,-3.69 -0.17,-0.73 -0.52,-1.38 -1.04,-1.94 -0.99,-0.99 -2.59,-1.49 -4.79,-1.49 -0.48,0 -3.79,0 -9.94,0 -6.15,0 -12.14,0 -17.96,0 -5.82,0 -10.01,0 -12.56,0 -2.55,0 -0.41,0 6.41,0 h -15.46 z" /><path
     inkscape:connector-curvature="0"
     id="path112"
     d="m 1022.6611,321.1 h 29.45 c 2.67,0 4.01,1.34 4.01,4.01 0,2.63 -1.34,3.95 -4.01,3.95 h -27.45 -2.01 -15.54 -32.88004 c -3.5,0 -6.11,-0.26 -7.83,-0.78 -1.81,-0.43 -3.3,-1.32 -4.47,-2.65 -2.24,-2.42 -3.37,-5.78 -3.37,-10.1 v -23.69 h 8.42 v 9.97 c 7.51,0 17.2,-0.01 29.07,-0.03 11.87004,-0.02 21.56004,-0.03 29.07004,-0.03 2.68,0 4.01,1.34 4.01,4.01 0,2.59 -1.27,3.91 -3.82,3.95 v 0.06 h -0.19 l -58.13004,-0.13 v 4.27 c 0,1.9 0.09,3.15 0.26,3.75 0.09,0.69 0.43,1.32 1.04,1.88 1.04,1.04 2.65,1.55 4.86,1.55 0.43,0 3.72,0 9.87,0 6.15,0 12.14,0 17.96004,0 5.82,0 10,0 12.53,0 2.52,0 0.4,0 -6.38,0 h 15.53 z" /><path
     inkscape:connector-curvature="0"
     id="path114"
     d="m 1127.4611,329.06 h -35.47 -11.46 c -3.75,0 -6.73,-0.39 -8.93,-1.17 -2.2,-0.73 -4.14,-2.07 -5.83,-4.01 -3.19,-3.58 -4.79,-8.09 -4.79,-13.53 0,-6.65 1.92,-11.61 5.76,-14.89 1.51,-1.34 3.34,-2.27 5.5,-2.78 2.03,-0.56 4.79,-0.84 8.29,-0.84 h 11.46 17.41 0.65 17.41 11.46 c 3.5,0 6.28,0.28 8.35,0.84 2.03,0.52 3.86,1.45 5.5,2.78 3.84,3.32 5.76,8.29 5.76,14.89 0,5.44 -1.6,9.95 -4.79,13.53 -1.81,1.99 -3.78,3.32 -5.89,4.01 -2.2,0.78 -5.18,1.17 -8.93,1.17 z m -47.06,-29.26 c -4.1,0 -6.95,0.91 -8.55,2.72 -1.51,1.81 -2.27,4.47 -2.27,7.96 0,4.01 1.25,6.91 3.75,8.67 1.04,0.73 2.14,1.25 3.3,1.55 1.21,0.26 2.89,0.39 5.05,0.39 h 10.29 35.47 10.36 c 2.16,0 3.82,-0.13 4.99,-0.39 1.17,-0.3 2.29,-0.82 3.37,-1.55 2.46,-1.81 3.69,-4.7 3.69,-8.67 0,-3.58 -0.76,-6.24 -2.27,-7.96 -1.64,-1.81 -4.49,-2.72 -8.54,-2.72 h -11.59 -35.47 z" /><path
     inkscape:connector-curvature="0"
     id="path116"
     d="m 1211.9411,299.8 c 6.78,0 8.9,0 6.38,0 -2.53,0 -6.7,0 -12.53,0 -5.83,0 -11.81,0 -17.96,0 -6.15,0 -9.44,0 -9.87,0 -2.24,0 -3.86,0.5 -4.86,1.49 -0.6,0.65 -0.95,1.29 -1.04,1.94 -0.17,0.6 -0.26,1.83 -0.26,3.69 v 22.14 h -8.42 v -23.69 c 0,-4.36 1.12,-7.72 3.37,-10.1 1.17,-1.29 2.65,-2.2 4.47,-2.72 1.81,-0.47 4.42,-0.71 7.83,-0.71 h 32.88 c 5.05,0 12.54,0 22.46,0 9.93,0 17.44,0 22.53,0 2.67,0 4.01,1.32 4.01,3.95 0,2.63 -1.32,3.97 -3.95,4.01 z" /></g>
</svg>
